#!OML:ASF E:/inclinewalkrobotboard/Project1/Captureday1/Session1/subject1.ASF
:FULLY-SPECIFIED
:DEGREES
238
root 0 0 0 -2.4776276051355044 -1.5919186400116736 -2.526842267990744
lowerback 10.471701284358963 0.32035864058816726 1.0636777507162303
upperback 0.44644637311159174 0.6579236019233023 1.787941302240283
thorax -5.301452214177905 0.32658444682995824 1.1795301745800644
lowerneck -17.398951589109693 -2.864853691242728 -1.7283128236087073
upperneck 19.74883617183916 -3.5450328834555016 0.18515159050310004
head 9.109405271105402 -1.743568756631191 -0.11795131922653113
rclavicle -3.622277279825738E-16 -3.640498662907845E-16
rhumerus -30.40375363662504 -19.247885088899224 -78.31611491623798
rradius 25.47363188460147
rwrist 4.129717540138447
rhand -17.46429529005238 23.43714749019019
rfingers 7.125020000000037
rthumb 8.769821069607449 -6.399191526051407
lclavicle -6.531054910665126E-16 -2.0767277870896757E-16
lhumerus -30.272680600284914 -1.5425972179820207 82.28578399134716
lradius 32.377764834391684
lwrist 5.67943250525709
lhand -25.6000713270979 23.895430015394627
lfingers 7.123950301860823
lthumb 0.9202349755904056 53.517002706047656
rfemur -21.359536214302842 1.9941446010319366 21.25545441214567
rtibia 56.99231735085437
rfoot 0.49456695866872913 -5.8944634417836905
rtoes 7.125365371396538
lfemur 3.835578180943953 -3.3200646712487627 -26.29439564604513
ltibia 19.182788391259706
lfoot -15.913505064546424 0.4455576012563762
ltoes -3.996879276785771
239
root 0 0 0 -2.5665298926765256 -0.9345678354118956 -1.4726392706723432
lowerback 10.453080499810328 -0.12914283471906152 -0.09305015430804553
upperback 0.4606473096773298 -0.07159970830437878 1.779949542524653
thorax -5.281318444227027 -0.00918222580491107 1.9205411535264612
lowerneck -17.373266373636046 -2.7793997948364586 -1.8270457196516983
upperneck 19.778942905034413 -3.40693315198264 0.1813694235411738
head 9.11193975769553 -1.6892823504812422 -0.0857871148648246
rclavicle -3.6772896532864453E-16 -3.620114507456807E-16
rhumerus -30.263602178838518 -19.1140743016091 -78.28633617108294
rradius 25.606844615395108
rwrist 4.159266654067507
rhand -17.48713577724367 23.33301713023138
rfingers 7.125020000000036
rthumb 8.74819259246648 -6.501329225510336
lclavicle -6.624731488594914E-16 -2.0890235246039275E-16
lhumerus -30.102654151578847 -1.7281257285356943 82.27361839112382
lradius 32.737590780579986
lwrist 5.714398636583436
lhand -25.493156807169598 23.95918582305705
lfingers 7.123860850708035
lthumb 1.0222910490146848 53.545132381410944
rfemur -21.230146907452493 2.256640961348256 21.2663254121956
rtibia 55.6234778972983
rfoot -0.13013312266785348 -6.101507336942656
rtoes 6.619871460101295
lfemur 3.901274776605179 -3.3131010878582274 -26.29338193291685
ltibia 19.242055788564617
lfoot -15.965366543602482 0.47218559033846486
ltoes -4.0533351352023645
240
root 0 0 0 -2.656931098211419 -0.4794333341325654 -0.38538398240070715
lowerback 10.425942930826952 -0.5595096619738934 -1.2796366243573432
upperback 0.49874335563538086 -0.7813448091464554 1.742054426601805
thorax -5.229352904096331 -0.33704206560919486 2.6449708146048074
lowerneck -17.22411524631417 -2.706050247370222 -1.9792150721338837
upperneck 19.718528595065205 -3.2950273609694003 0.2695601090123647
head 9.06400211305366 -1.646410454493897 -0.013892908326060383
rclavicle -3.7690655887514674E-16 -3.565610741802009E-16
rhumerus -30.071977806625412 -18.933826114391252 -78.24540123072849
rradius 25.78500852128145
rwrist 4.199121040617203
rhand -17.51885284677319 23.192137723600936
rfingers 7.125020000000034
rthumb 8.718616557303232 -6.639267668601274
lclavicle -6.723204003575656E-16 -2.0592950639052745E-16
lhumerus -29.863312936814157 -1.9925944157829498 82.25776486281623
lradius 33.246685214316884
lwrist 5.763709585704814
lhand -25.34256796631316 24.049593337891892
lfingers 7.1237310967876395
lthumb 1.1645529447352612 53.586609334125114
rfemur -20.712590009645613 2.7707358287653108 21.45145655367941
rtibia 52.89708934764522
rfoot -1.3668809135604842 -6.428112642732129
rtoes 5.7005406015394735
lfemur 4.062618314261334 -3.3094771806853167 -26.32895783821387
ltibia 19.263208924169106
lfoot -16.064542127794518 0.5018469072353478
ltoes -4.143830147279098
241
root 0 0 0 -2.719450164832251 -0.28156832382155095 0.38091166039491575
lowerback 10.402864982017201 -0.8483757981596375 -2.1132061199623338
upperback 0.5418007153331565 -1.2632936123373928 1.698651114530199
thorax -5.172158134687662 -0.5601716980037528 3.135474534621713
lowerneck -17.036615088418678 -2.6614155584201926 -2.1198282171858542
upperneck 19.625028688455444 -3.232141433183755 0.38552652147606814
head 8.99943466751421 -1.6219954260891847 0.06039900791046904
rclavicle -3.85626063614694E-16 -3.509217007743426E-16
rhumerus -29.90314497024216 -18.777097256124726 -78.209535475032
rradius 25.938958524564868
rwrist 4.233604645251604
rhand -17.54732503038708 23.069109066751352
rfingers 7.125020000000032
rthumb 8.692516642401557 -6.7595538174807785
lclavicle -6.807957646649084E-16 -1.9961114966539675E-16
lhumerus -29.604348478221517 -2.2809741492017572 82.24117879755252
lradius 33.79917305363154
lwrist 5.81754038957186
lhand -25.17969007179541 24.14817566054422
lfingers 7.123588520034369
lthumb 1.3173512370840648 53.632861449912056
rfemur -19.463351507623585 3.667653224723985 21.986758725385727
rtibia 48.12197313566538
rfoot -3.5406917901177692 -6.8975808852859535
rtoes 4.2172224783420615
lfemur 4.316545266281759 -3.284557985328858 -26.386019109864456
ltibia 19.43600119067646
lfoot -16.093598966451896 0.42757506068589723
ltoes -4.300561012920205
242
root 0 0 0 -2.747675309335862 -0.21538554664088316 0.7441701449816547
lowerback 10.390265788948446 -0.9842106342766618 -2.508855151902967
upperback 0.566780071285728 -1.4906696002391615 1.674482245025808
thorax -5.138747150173785 -0.6655437444814085 3.3655312407501428
lowerneck -16.924510246120278 -2.6423297890503883 -2.196662443889255
upperneck 19.57133548839002 -3.2074506805829244 0.45444348967693227
head 8.960952752641491 -1.6115471015815896 0.1021016303537241
rclavicle -3.9232388039653683E-16 -3.476364460557944E-16
rhumerus -29.785293760619435 -18.669363649110714 -78.18525943075934
rradius 26.043616309397514
rwrist 4.25712497510386
rhand -17.567192790274355 22.98455301123175
rfingers 7.125020000000031
rthumb 8.674504768243004 -6.842279499106471
lclavicle -6.907923467178479E-16 -1.9334575357813625E-16
lhumerus -29.3647286675051 -2.546952717393335 82.2249687395111
lradius 34.30918742242618
lwrist 5.867749597172036
lhand -25.029058444837823 24.24006988498807
lfingers 7.123461151381878
lthumb 1.458645535161292 53.67598020188422
rfemur -16.91599086815177 5.112446228646421 23.15073420145062
rtibia 40.53173882880442
rfoot -7.072211866220533 -7.504727247497508
rtoes 2.064475226464327
lfemur 4.514127963886848 -3.2210926102069326 -26.390110295627743
ltibia 19.926369043580905
lfoot -15.932039225007955 0.20191916489346617
ltoes -4.508555378072956
243
root 0 0 0 -2.7575042981364333 -0.18040940197988498 0.8970617223200239
lowerback 10.382501323537102 -1.0443415619008865 -2.676716382479164
upperback 0.5764009513065353 -1.5904049066639963 1.6657243958876067
thorax -5.124066478456438 -0.7118061064314753 3.465919879077674
lowerneck -16.88018345171635 -2.6343224917605848 -2.228982753546984
upperneck 19.555348615761346 -3.1975798425574493 0.4816329247329838
head 8.945959111403445 -1.6066758339262388 0.11896684729338824
rclavicle -4.0042242842708715E-16 -3.450590248729778E-16
rhumerus -29.65890523316349 -18.554085133876377 -78.15920506283581
rradius 26.15450467464757
rwrist 4.282315119570402
rhand -17.587512384991204 22.89514755458513
rfingers 7.125020000000029
rthumb 8.655721180796546 -6.929944620147303
lclavicle -7.066785626791735E-16 -1.8924604580967815E-16
lhumerus -29.123953224882257 -2.813268977535934 82.20756934283922
lradius 34.821236013197414
lwrist 5.917911497239416
lhand -24.87610103121301 24.332867360668256
lfingers 7.123336956241879
lthumb 1.6033004623806395 53.71866998279654
rfemur -12.616946856937584 7.252881014488533 25.130948208283783
rtibia 29.504329052622438
rfoot -12.332740214912068 -8.257430427081664
rtoes -0.8797769206354507
lfemur 4.544926518228527 -3.1327947296099867 -26.30315086414995
ltibia 20.65519453017218
lfoot -15.604832861195598 -0.10544346071359367
ltoes -4.719038537747048
244
root 0 0 0 -2.7625882467413 -0.16860631786643765 0.9904191861891458
lowerback 10.374170021511697 -1.0814516659437472 -2.7791912987122123
upperback 0.583375946740825 -1.651826129805836 1.659333223390294
thorax -5.11182423810736 -0.7403394768142095 3.526451891077879
lowerneck -16.844974768595215 -2.6285464419638616 -2.2519475482649414
upperneck 19.544054304510595 -3.190483772441552 0.5016473300834248
head 8.934116323385187 -1.603167541198172 0.1309175616539937
rclavicle -4.1169438064131906E-16 -3.4125747820940043E-16
rhumerus -29.50469424564586 -18.409623495518872 -78.12651539370403
rradius 26.29262529064565
rwrist 4.313317494014993
rhand -17.612032339332334 22.78492822075611
rfingers 7.1250200000000286
rthumb 8.632981276117611 -7.038030652408519
lclavicle -7.25995895106206E-16 -1.875832999857419E-16
lhumerus -28.892388204148386 -3.0722765690664637 82.19086191297997
lradius 35.31762556458489
lwrist 5.9648030774755885
lhand -24.725084201040634 24.42191996377612
lfingers 7.123212612546833
lthumb 1.7472575807214703 53.759763254004035
rfemur -8.66626448477201 9.141893628784715 26.923833606957295
rtibia 19.810665032927442
rfoot -16.970949966910123 -8.863488187248759
rtoes -3.4709485189051
lfemur 4.514328549055952 -3.0377148445418323 -26.18767648317115
ltibia 21.455214592419704
lfoot -15.21258455492105 -0.4457345827910295
ltoes -4.919020850429517
